HIERARCHY
ROOT Hips
{
	OFFSET 0.00000 0.00000 0.00000
	CHANNELS 6 Xposition Yposition Zposition Zrotation Yrotation Xrotation 
	JOINT LHipJoint
	{
		OFFSET 0 0 0
		CHANNELS 3 Zrotation Yrotation Xrotation
		JOINT LeftUpLeg
		{
			OFFSET 1.62067 -1.77917 0.70989
			CHANNELS 3 Zrotation Yrotation Xrotation
			JOINT LeftLeg
			{
				OFFSET 2.34532 -6.44371 0.00000
				CHANNELS 3 Zrotation Yrotation Xrotation
				JOINT LeftFoot
				{
					OFFSET 2.74224 -7.53425 0.00000
					CHANNELS 3 Zrotation Yrotation Xrotation
					JOINT LeftToeBase
					{
						OFFSET 0.17032 -0.46794 2.08086
						CHANNELS 3 Zrotation Yrotation Xrotation
						End Site
						{
							OFFSET 0.00000 -0.00000 1.07476
						}
					}
				}
			}
		}
	}
	JOINT RHipJoint
	{
		OFFSET 0 0 0
		CHANNELS 3 Zrotation Yrotation Xrotation
		JOINT RightUpLeg
		{
			OFFSET -1.55811 -1.77917 0.70989
			CHANNELS 3 Zrotation Yrotation Xrotation
			JOINT RightLeg
			{
				OFFSET -2.33243 -6.40830 0.00000
				CHANNELS 3 Zrotation Yrotation Xrotation
				JOINT RightFoot
				{
					OFFSET -2.78798 -7.65993 0.00000
					CHANNELS 3 Zrotation Yrotation Xrotation
					JOINT RightToeBase
					{
						OFFSET -0.22707 -0.62388 2.04059
						CHANNELS 3 Zrotation Yrotation Xrotation
						End Site
						{
							OFFSET -0.00000 -0.00000 1.07030
						}
					}
				}
			}
		}
	}
	JOINT LowerBack
	{
		OFFSET 0 0 0
		CHANNELS 3 Zrotation Yrotation Xrotation
		JOINT Spine
		{
			OFFSET 0.02203 1.91565 0.07161
			CHANNELS 3 Zrotation Yrotation Xrotation
			JOINT Spine1
			{
				OFFSET 0.01740 1.90525 0.11636
				CHANNELS 3 Zrotation Yrotation Xrotation
				JOINT Neck
				{
					OFFSET 0 0 0
					CHANNELS 3 Zrotation Yrotation Xrotation
					JOINT Neck1
					{
						OFFSET -0.10841 1.83566 0.05067
						CHANNELS 3 Zrotation Yrotation Xrotation
						JOINT Head
						{
							OFFSET 0.06601 1.74760 -0.50505
							CHANNELS 3 Zrotation Yrotation Xrotation
							End Site
							{
								OFFSET 0.03102 1.85215 -0.17697
							}
						}
					}
				}
				JOINT LeftShoulder
				{
					OFFSET 0 0 0
					CHANNELS 3 Zrotation Yrotation Xrotation
					JOINT LeftArm
					{
						OFFSET 2.87059 1.35470 0.16111
						CHANNELS 3 Zrotation Yrotation Xrotation
						JOINT LeftForeArm
						{
							OFFSET 5.43592 -0.00000 0.00000
							CHANNELS 3 Zrotation Yrotation Xrotation
							JOINT LeftHand
							{
								OFFSET 3.25460 -0.00000 0.00000
								CHANNELS 3 Zrotation Yrotation Xrotation
								JOINT LeftFingerBase
								{
									OFFSET 0 0 0
									CHANNELS 3 Zrotation Yrotation Xrotation
									JOINT LeftHandIndex1
									{
										OFFSET 0.49824 -0.00000 0.00000
										CHANNELS 3 Zrotation Yrotation Xrotation
										End Site
										{
											OFFSET 0.40170 -0.00000 0.00000
										}
									}
								}
								JOINT LThumb
								{
									OFFSET 0 0 0
									CHANNELS 3 Zrotation Yrotation Xrotation
									End Site
									{
										OFFSET 0.40783 -0.00000 0.40783
									}
								}
							}
						}
					}
				}
				JOINT RightShoulder
				{
					OFFSET 0 0 0
					CHANNELS 3 Zrotation Yrotation Xrotation
					JOINT RightArm
					{
						OFFSET -2.86643 1.23488 0.45957
						CHANNELS 3 Zrotation Yrotation Xrotation
						JOINT RightForeArm
						{
							OFFSET -5.33830 -0.00000 0.00000
							CHANNELS 3 Zrotation Yrotation Xrotation
							JOINT RightHand
							{
								OFFSET -3.23148 -0.00000 0.00000
								CHANNELS 3 Zrotation Yrotation Xrotation
								JOINT RightFingerBase
								{
									OFFSET 0 0 0
									CHANNELS 3 Zrotation Yrotation Xrotation
									JOINT RightHandIndex1
									{
										OFFSET -0.46364 -0.00000 0.00000
										CHANNELS 3 Zrotation Yrotation Xrotation
										End Site
										{
											OFFSET -0.37380 -0.00000 0.00000
										}
									}
								}
								JOINT RThumb
								{
									OFFSET 0 0 0
									CHANNELS 3 Zrotation Yrotation Xrotation
									End Site
									{
										OFFSET -0.37951 -0.00000 0.37951
									}
								}
							}
						}
					}
				}
			}
		}
	}
}
MOTION
Frames: 5
Frame Time: .0083333
4.5700 17.4735 2.4514 -6.2855 -9.7578 4.3132 0.0000 0.0000 0.0000 -21.7612 -4.4784 -14.9306 2.1212 9.1142 26.1532 0.5622 1.2950 -14.6910 0.5728 4.8469 13.4724 0.0000 0.0000 0.0000 4.1527 22.4851 -103.1436 -24.8429 -19.4281 104.2905 -6.3705 -11.2005 46.5526 -0.1658 2.6231 -7.2312 3.0061 -0.4019 12.4542 1.3175 -0.1777 5.1731 -0.2998 -0.0775 -1.5660 -2.3111 -0.4830 -13.0101 0.6190 -0.4204 36.1559 0.5846 -0.4670 14.6656 0.0000 -0.0000 0.0000 -34.2875 21.3832 -5.5631 14.9968 -24.1417 -3.2246 -0.0000 0.0000 -9.6142 32.3171 -31.6740 -18.3747 -7.1250 0.0000 -0.0000 0.3422 -6.1519 -0.3769 0.0000 -0.0000 0.0000 37.1340 -22.1952 -1.8804 -20.9805 31.8056 -6.0397 0.0000 0.0000 4.2911 -25.0354 -37.9355 16.0207 7.1250 -0.0000 -0.0000 14.3680 -70.2062 -8.7138
4.5678 17.4674 2.4455 -6.2684 -9.7601 4.2763 0.0000 0.0000 0.0000 -21.7550 -4.4196 -15.0196 2.1406 9.1531 26.2754 0.5738 1.1561 -14.7734 0.5833 4.8903 13.5960 0.0000 0.0000 0.0000 4.1125 22.5050 -103.1637 -24.8141 -19.4350 104.2039 -6.4259 -10.5607 46.8118 -0.1887 2.7980 -7.7169 2.9773 -0.3694 12.5551 1.3360 -0.1294 5.0496 -0.2703 -0.0567 -1.7483 -2.4359 -0.5251 -12.6126 0.7372 -0.5027 36.1196 0.6425 -0.5036 14.5593 0.0000 0.0000 0.0000 -34.0605 21.3319 -5.7386 14.8295 -23.9081 -3.1565 -0.0000 0.0000 -9.0253 33.8266 -24.9539 -15.7863 -7.1250 0.0000 -0.0000 2.5585 0.7503 -2.5273 0.0000 0.0000 0.0000 36.9600 -22.3827 -1.8647 -20.9032 31.7152 -5.9990 0.0000 0.0000 4.5290 -25.0436 -38.2626 16.1374 7.1250 -0.0000 -0.0000 14.7719 -70.5192 -9.0647
4.5659 17.4646 2.4384 -6.2826 -9.7628 4.2839 0.0000 0.0000 0.0000 -21.7171 -4.3885 -15.1398 2.1638 9.1992 26.4204 0.5810 1.0634 -14.8230 0.5741 4.8523 13.4877 0.0000 0.0000 0.0000 4.0810 22.5402 -103.1786 -24.7581 -19.4483 104.0358 -6.5109 -10.3890 47.1586 -0.1984 2.8685 -7.9128 2.9472 -0.3669 12.6232 1.3605 -0.1273 5.0820 -0.2280 -0.0561 -1.7511 -2.3274 -0.5173 -12.7512 0.5564 -0.4507 36.0590 0.5568 -0.4897 14.5610 0.0000 0.0000 0.0000 -33.9576 21.1158 -6.4510 14.7564 -23.8057 -3.1270 -0.0000 0.0000 -8.9159 33.1863 -36.4385 -21.2298 -7.1250 0.0000 -0.0000 -0.3057 -11.4382 0.3603 0.0000 0.0000 0.0000 36.8136 -22.2127 -1.9931 -20.8252 31.6238 -5.9580 0.0000 0.0000 4.7702 -24.7382 -38.7467 16.0864 7.1250 -0.0000 -0.0000 15.8224 -70.8744 -9.8435
4.5645 17.4686 2.4303 -6.4784 -9.7594 4.3477 0.0000 0.0000 0.0000 -21.4731 -4.3573 -15.3019 2.1849 9.2410 26.5523 0.5835 0.9633 -14.8107 0.5837 4.8920 13.6008 0.0000 0.0000 0.0000 4.2703 22.6204 -103.1008 -24.6793 -19.4667 103.7991 -6.5668 -9.8794 47.4165 -0.2308 3.0925 -8.5362 3.1212 -0.3661 12.5631 1.4343 -0.1102 5.1775 -0.2520 -0.0445 -1.6178 -2.1714 -0.5210 -12.8799 0.2747 -0.3919 35.8877 0.4223 -0.4789 14.5086 0.0000 -0.0000 0.0000 -33.8831 21.0430 -6.3600 14.8496 -23.9362 -3.1647 -0.0000 0.0000 -9.3714 33.5439 -29.6563 -18.1617 -7.1250 0.0000 -0.0000 1.4607 -4.3492 -1.5677 0.0000 -0.0000 0.0000 36.6647 -21.9187 -2.3373 -20.6283 31.3919 -5.8551 0.0000 0.0000 4.8954 -24.4769 -38.7847 15.9160 7.1250 -0.0000 -0.0000 16.2232 -70.8234 -10.0788
4.5631 17.4692 2.4198 -6.5614 -9.7561 4.3971 0.0000 0.0000 0.0000 -21.3428 -4.3356 -15.4904 2.2049 9.2804 26.6763 0.5772 0.9105 -14.7101 0.5839 4.8929 13.6034 0.0000 0.0000 0.0000 4.3255 22.6665 -103.1275 -24.6130 -19.4820 103.6003 -6.6151 -9.1482 47.6678 -0.2831 3.4221 -9.4563 3.2252 -0.3408 12.3963 1.4778 -0.0753 5.2886 -0.2706 -0.0232 -1.4103 -2.1876 -0.5445 -12.7740 0.1923 -0.3918 35.5951 0.3916 -0.4884 14.3484 0.0000 -0.0000 0.0000 -33.7755 20.9580 -6.0188 14.9241 -24.0402 -3.1949 -0.0000 0.0000 -9.4664 33.7506 -29.0388 -17.9701 -7.1250 0.0000 -0.0000 1.7078 -3.7391 -1.8163 0.0000 -0.0000 0.0000 36.5584 -21.7107 -2.7904 -20.4141 31.1380 -5.7440 0.0000 0.0000 5.1237 -24.6706 -38.6861 16.0190 7.1250 -0.0000 -0.0000 15.8303 -70.7951 -9.8209
